<?xml version="1.0" standalone="no"?>
<!DOCTYPE svg PUBLIC "-//W3C//DTD SVG 20010904//EN"
 "http://www.w3.org/TR/2001/REC-SVG-20010904/DTD/svg10.dtd">
<svg version="1.0" xmlns="http://www.w3.org/2000/svg"
 width="589.000000pt" height="910.000000pt" viewBox="0 0 589.000000 910.000000"
 preserveAspectRatio="xMidYMid meet">

<g transform="translate(0.000000,910.000000) scale(0.100000,-0.100000)"
fill="#000000" stroke="none">
<path d="M2475 9086 c-110 -18 -537 -122 -649 -157 -127 -41 -315 -137 -416
-213 -165 -124 -325 -310 -515 -600 -86 -131 -257 -429 -271 -473 -3 -10 22
31 56 91 124 220 341 543 470 701 85 104 227 235 329 303 176 118 335 178 695
263 116 27 234 55 261 61 28 7 96 13 152 13 56 0 96 3 90 7 -26 14 -127 16
-202 4z"/>
<path d="M2663 8963 c9 -2 23 -2 30 0 6 3 -1 5 -18 5 -16 0 -22 -2 -12 -5z"/>
<path d="M2618 8953 c7 -3 16 -2 19 1 4 3 -2 6 -13 5 -11 0 -14 -3 -6 -6z"/>
<path d="M2514 8915 c-149 -76 -320 -232 -437 -395 -155 -218 -260 -499 -356
-956 -56 -263 -111 -728 -99 -839 4 -31 5 -26 6 21 9 332 135 985 259 1348
125 367 374 683 642 818 42 21 71 38 64 38 -6 0 -42 -16 -79 -35z"/>
<path d="M2815 8741 c-13 -5 22 -10 100 -14 169 -9 279 -36 404 -98 121 -61
195 -115 308 -222 127 -122 204 -248 308 -500 15 -37 29 -66 30 -65 7 6 -75
228 -105 289 -106 211 -315 412 -555 533 -95 48 -225 78 -360 82 -60 2 -119 0
-130 -5z"/>
<path d="M2512 8713 c-23 -33 -62 -109 -62 -120 0 -4 16 20 34 55 19 35 40 69
46 77 7 8 10 15 7 15 -3 0 -14 -12 -25 -27z"/>
<path d="M1600 8639 c-201 -109 -381 -255 -553 -447 -99 -111 -206 -243 -258
-319 -52 -75 -25 -47 57 60 258 335 503 558 774 706 41 22 71 41 65 41 -5 0
-44 -19 -85 -41z"/>
<path d="M2421 8518 c-11 -35 -41 -137 -65 -228 -25 -91 -64 -230 -86 -310
-22 -80 -59 -248 -81 -375 -48 -278 -67 -359 -114 -493 -91 -261 -232 -488
-500 -807 -232 -275 -314 -393 -421 -606 -152 -303 -216 -552 -227 -884 -5
-131 -5 -129 29 155 43 372 206 768 441 1075 38 50 125 158 193 240 217 261
305 387 395 565 109 218 160 388 219 740 20 118 49 267 65 330 39 159 147 557
166 610 8 23 13 45 11 47 -2 2 -13 -24 -25 -59z"/>
<path d="M975 8368 l-40 -43 43 40 c39 36 47 45 39 45 -2 0 -21 -19 -42 -42z"/>
<path d="M2501 8314 c0 -11 3 -14 6 -6 3 7 2 16 -1 19 -3 4 -6 -2 -5 -13z"/>
<path d="M914 8298 l-19 -23 23 19 c21 18 27 26 19 26 -2 0 -12 -10 -23 -22z"/>
<path d="M2492 8260 c0 -14 2 -19 5 -12 2 6 2 18 0 25 -3 6 -5 1 -5 -13z"/>
<path d="M879 8253 c-13 -16 -12 -17 4 -4 16 13 21 21 13 21 -2 0 -10 -8 -17
-17z"/>
<path d="M849 8213 c-13 -16 -12 -17 4 -4 16 13 21 21 13 21 -2 0 -10 -8 -17
-17z"/>
<path d="M2479 7890 c-6 -310 -9 -343 -32 -447 -81 -355 -195 -630 -444 -1068
-172 -303 -195 -346 -258 -485 -102 -227 -161 -436 -200 -710 -19 -137 -34
-465 -26 -570 6 -68 7 -61 13 80 13 264 64 617 123 844 60 230 199 536 405
891 178 306 323 659 385 935 36 160 46 299 43 595 l-3 270 -6 -335z"/>
<path d="M819 8173 c-13 -16 -12 -17 4 -4 16 13 21 21 13 21 -2 0 -10 -8 -17
-17z"/>
<path d="M789 8133 c-13 -16 -12 -17 4 -4 16 13 21 21 13 21 -2 0 -10 -8 -17
-17z"/>
<path d="M759 8093 c-13 -16 -12 -17 4 -4 16 13 21 21 13 21 -2 0 -10 -8 -17
-17z"/>
<path d="M666 7958 c-158 -241 -247 -456 -320 -769 -19 -85 -38 -183 -41 -219
-4 -51 -1 -41 15 44 71 385 183 682 361 952 38 57 66 104 64 104 -3 0 -39 -51
-79 -112z"/>
<path d="M1116 7902 c-103 -205 -150 -364 -176 -587 -17 -154 -28 -531 -21
-735 l6 -195 7 315 c17 711 46 877 214 1238 23 50 41 92 38 92 -2 0 -33 -57
-68 -128z"/>
<path d="M3560 7951 c-60 -19 -153 -75 -207 -125 -99 -92 -189 -243 -208 -351
-10 -53 -2 -43 75 90 120 209 199 288 339 335 104 35 194 19 226 -39 l14 -26
1 31 c0 34 -28 66 -73 83 -32 12 -129 13 -167 2z"/>
<path d="M743 7808 c-15 -20 -25 -38 -20 -38 3 0 12 11 21 25 17 26 16 35 -1
13z"/>
<path d="M4030 7706 c0 -2 8 -10 18 -17 15 -13 16 -12 3 4 -13 16 -21 21 -21
13z"/>
<path d="M3564 7661 c-61 -44 -143 -137 -164 -183 -18 -43 -53 -155 -46 -147
2 2 24 44 49 92 53 103 116 188 167 225 51 37 56 42 44 42 -6 0 -29 -13 -50
-29z"/>
<path d="M4101 7621 c130 -162 280 -276 425 -325 44 -14 94 -35 112 -46 44
-27 65 -76 52 -121 -13 -43 -13 -44 4 -30 25 21 28 59 7 106 -21 48 -73 81
-161 105 -138 37 -268 133 -450 330 -18 19 -13 11 11 -19z"/>
<path d="M2714 7440 c0 -52 1 -74 3 -47 2 26 2 68 0 95 -2 26 -3 4 -3 -48z"/>
<path d="M3710 7415 c-16 -10 -48 -15 -90 -14 -36 1 -77 1 -92 0 -32 -1 -88
-46 -88 -71 0 -15 5 -17 38 -10 20 5 71 8 112 8 113 -2 187 31 178 79 -4 23
-27 26 -58 8z"/>
<path d="M2723 7260 c0 -25 2 -35 4 -22 2 12 2 32 0 45 -2 12 -4 2 -4 -23z"/>
<path d="M2733 7150 c0 -25 2 -35 4 -22 2 12 2 32 0 45 -2 12 -4 2 -4 -23z"/>
<path d="M4240 7155 c-7 -9 -11 -17 -9 -20 3 -2 10 5 17 15 14 24 10 26 -8 5z"/>
<path d="M2602 7125 c0 -16 2 -22 5 -12 2 9 2 23 0 30 -3 6 -5 -1 -5 -18z"/>
<path d="M4224 7060 c4 -70 35 -157 67 -186 45 -41 104 -13 154 72 14 25 46
56 75 75 28 18 50 34 50 36 0 7 -75 -29 -93 -45 -11 -9 -37 -43 -59 -74 -23
-34 -48 -60 -62 -64 -57 -14 -111 66 -126 183 l-9 68 3 -65z"/>
<path d="M2741 7078 c-1 -15 13 -107 30 -205 43 -245 46 -450 9 -598 -22 -87
-25 -121 -25 -270 1 -130 5 -185 18 -235 17 -63 81 -210 91 -210 3 0 -9 29
-25 64 -74 157 -91 419 -42 634 32 141 35 329 9 482 -46 266 -65 362 -65 338z"/>
<path d="M2593 7030 c0 -25 2 -35 4 -22 2 12 2 32 0 45 -2 12 -4 2 -4 -23z"/>
<path d="M642 6808 c-204 -409 -281 -695 -289 -1083 -4 -186 -2 -241 15 -355
24 -157 62 -333 103 -475 32 -110 117 -344 131 -360 5 -5 2 10 -7 35 -118 333
-203 752 -212 1045 -12 402 73 765 284 1208 47 98 83 181 80 183 -2 2 -49 -87
-105 -198z"/>
<path d="M2581 6938 c-4 -120 -36 -395 -55 -471 -45 -176 -137 -336 -316 -552
-179 -215 -287 -405 -369 -652 -56 -167 -51 -176 10 -18 65 168 164 372 222
457 26 37 101 136 167 219 134 168 156 198 217 314 23 44 43 74 43 68 0 -7
-15 -90 -34 -185 -52 -265 -60 -323 -59 -458 0 -144 15 -227 74 -404 112 -339
259 -538 658 -894 242 -216 319 -290 415 -401 225 -261 487 -668 672 -1045
116 -236 118 -231 7 24 -115 261 -192 404 -336 620 -215 323 -389 518 -682
768 -219 187 -412 382 -497 502 -219 310 -330 694 -289 1005 13 95 98 552 125
668 9 38 14 73 10 78 -3 5 0 9 6 9 7 0 9 7 6 17 -4 9 -2 88 5 174 6 86 9 163
6 171 -3 7 -6 1 -6 -14z"/>
<path d="M4600 6892 c0 -35 38 -120 64 -141 23 -19 19 -3 -14 59 -17 30 -30
62 -30 70 0 8 -5 22 -10 30 -7 11 -10 7 -10 -18z"/>
<path d="M293 6850 c0 -30 2 -43 4 -27 2 15 2 39 0 55 -2 15 -4 2 -4 -28z"/>
<path d="M4627 6646 c-14 -13 -38 -48 -53 -77 -14 -30 -49 -85 -75 -124 -50
-72 -79 -140 -56 -132 17 5 98 125 142 210 53 102 69 117 124 117 43 1 45 2
27 15 -30 23 -79 19 -109 -9z"/>
<path d="M4638 6490 c-25 -16 -66 -57 -93 -91 -26 -33 -57 -70 -69 -82 l-21
-21 30 19 c17 10 66 55 110 101 54 55 91 86 115 92 l35 10 -31 1 c-18 1 -48
-11 -76 -29z"/>
<path d="M4785 6481 c11 -52 -16 -85 -92 -116 -70 -28 -169 -80 -178 -94 -8
-14 97 8 174 37 120 44 156 97 119 177 -15 34 -31 32 -23 -4z"/>
<path d="M4691 6222 c-1 -61 12 -90 79 -176 63 -80 80 -117 80 -166 0 -51 -17
-84 -67 -131 -49 -48 -105 -75 -179 -88 -188 -35 -225 -42 -260 -56 l-39 -14
40 4 c22 2 81 7 130 10 169 11 262 44 334 117 97 98 93 191 -14 326 -79 100
-88 116 -96 177 l-6 50 -2 -53z"/>
<path d="M1597 6081 c-4 -19 -43 -109 -87 -200 -138 -289 -176 -478 -187 -923
-6 -241 7 -509 27 -588 8 -28 9 -24 5 25 -10 112 -6 659 5 780 24 268 67 460
141 627 57 131 110 278 106 297 -1 9 -6 1 -10 -18z"/>
<path d="M2562 5580 c0 -14 2 -19 5 -12 2 6 2 18 0 25 -3 6 -5 1 -5 -13z"/>
<path d="M3968 5573 c7 -3 16 -2 19 1 4 3 -2 6 -13 5 -11 0 -14 -3 -6 -6z"/>
<path d="M3858 5563 c12 -2 32 -2 45 0 12 2 2 4 -23 4 -25 0 -35 -2 -22 -4z"/>
<path d="M3748 5553 c12 -2 30 -2 40 0 9 3 -1 5 -23 4 -22 0 -30 -2 -17 -4z"/>
<path d="M3628 5543 c12 -2 32 -2 45 0 12 2 2 4 -23 4 -25 0 -35 -2 -22 -4z"/>
<path d="M3518 5533 c12 -2 30 -2 40 0 9 3 -1 5 -23 4 -22 0 -30 -2 -17 -4z"/>
<path d="M3398 5523 c12 -2 32 -2 45 0 12 2 2 4 -23 4 -25 0 -35 -2 -22 -4z"/>
<path d="M3288 5513 c12 -2 30 -2 40 0 9 3 -1 5 -23 4 -22 0 -30 -2 -17 -4z"/>
<path d="M2590 5466 c0 -21 76 -150 125 -209 102 -123 226 -210 525 -367 268
-141 317 -178 366 -285 31 -66 33 -168 4 -224 -19 -39 -73 -91 -92 -91 -6 0
-9 -3 -5 -6 3 -4 25 5 49 19 126 74 125 272 -1 404 -60 62 -117 98 -318 199
-100 51 -229 122 -285 159 -139 90 -268 222 -325 330 -23 44 -43 76 -43 71z"/>
<path d="M2274 5418 l-19 -23 23 19 c21 18 27 26 19 26 -2 0 -12 -10 -23 -22z"/>
<path d="M2242 5378 c-5 -7 -21 -37 -36 -65 -79 -158 -79 -354 0 -898 14 -93
28 -245 31 -337 9 -253 -16 -402 -114 -692 -99 -292 -119 -453 -110 -906 8
-434 40 -598 164 -845 78 -153 187 -299 353 -469 180 -185 379 -343 575 -456
60 -35 30 -10 -55 46 -105 68 -297 224 -417 338 -361 343 -546 691 -583 1096
-13 148 -13 580 1 735 14 161 38 269 109 480 86 255 104 356 103 590 0 170 -4
219 -41 470 -23 154 -47 334 -53 400 -21 213 1 368 67 483 24 41 27 55 6 30z"/>
<path d="M3948 5178 c-15 -51 -17 -280 -3 -323 7 -23 11 8 16 135 3 91 10 180
14 198 11 49 -12 40 -27 -10z"/>
<path d="M1791 5094 c0 -11 3 -14 6 -6 3 7 2 16 -1 19 -3 4 -6 -2 -5 -13z"/>
<path d="M1781 5044 c0 -11 3 -14 6 -6 3 7 2 16 -1 19 -3 4 -6 -2 -5 -13z"/>
<path d="M1772 4990 c0 -14 2 -19 5 -12 2 6 2 18 0 25 -3 6 -5 1 -5 -13z"/>
<path d="M71 4864 c0 -11 3 -14 6 -6 3 7 2 16 -1 19 -3 4 -6 -2 -5 -13z"/>
<path d="M62 4810 c0 -14 2 -19 5 -12 2 6 2 18 0 25 -3 6 -5 1 -5 -13z"/>
<path d="M52 4750 c0 -19 2 -27 5 -17 2 9 2 25 0 35 -3 9 -5 1 -5 -18z"/>
<path d="M32 4625 c-59 -443 -22 -1073 79 -1385 12 -36 26 -69 31 -75 7 -7 8
-3 4 10 -93 314 -133 675 -123 1105 3 129 11 274 17 323 6 48 10 93 7 100 -2
6 -9 -28 -15 -78z"/>
<path d="M1978 4413 c-84 -186 -294 -897 -332 -1123 -41 -250 -56 -568 -36
-810 6 -85 14 -177 15 -205 2 -27 9 -70 15 -95 6 -25 22 -92 36 -150 41 -168
120 -362 211 -517 42 -72 36 -48 -13 49 -109 218 -184 453 -219 693 -52 353
-35 842 40 1175 43 191 241 848 299 991 32 80 22 74 -16 -8z"/>
<path d="M2382 4415 c0 -16 2 -22 5 -12 2 9 2 23 0 30 -3 6 -5 -1 -5 -18z"/>
<path d="M1522 4380 c0 -14 2 -19 5 -12 2 6 2 18 0 25 -3 6 -5 1 -5 -13z"/>
<path d="M2392 4350 c0 -14 2 -19 5 -12 2 6 2 18 0 25 -3 6 -5 1 -5 -13z"/>
<path d="M2402 4300 c0 -14 2 -19 5 -12 2 6 2 18 0 25 -3 6 -5 1 -5 -13z"/>
<path d="M370 4287 c0 -3 11 -32 25 -62 79 -179 118 -367 118 -560 0 -166 -15
-244 -80 -424 -134 -373 -154 -481 -151 -816 l1 -190 8 170 c15 323 39 472
104 657 92 258 105 298 120 373 34 163 20 390 -37 595 -29 110 -108 296 -108
257z"/>
<path d="M2411 4254 c0 -11 3 -14 6 -6 3 7 2 16 -1 19 -3 4 -6 -2 -5 -13z"/>
<path d="M1472 4152 c-17 -43 -40 -123 -51 -179 -23 -113 -43 -428 -36 -563 2
-47 7 -132 10 -190 8 -141 29 -284 70 -470 32 -143 122 -447 130 -439 2 2 -8
45 -21 94 -134 500 -170 766 -161 1195 6 281 19 382 67 530 17 51 29 95 27 97
-2 2 -18 -32 -35 -75z"/>
<path d="M2421 4223 c-1 -6 8 -49 19 -95 31 -128 34 -230 15 -483 -31 -410
-10 -642 82 -915 26 -76 157 -360 167 -360 2 0 -19 51 -49 113 -66 141 -138
353 -167 499 -20 100 -23 142 -23 358 1 135 6 304 12 376 12 157 3 290 -31
424 -13 52 -24 90 -25 83z"/>
<path d="M1093 4135 c0 -22 2 -30 4 -17 2 12 2 30 0 40 -3 9 -5 -1 -4 -23z"/>
<path d="M2560 4074 c0 -21 112 -131 267 -260 532 -446 789 -746 1000 -1169
78 -156 111 -240 238 -605 104 -299 224 -615 231 -608 2 2 -13 47 -32 98 -20
52 -92 256 -160 453 -152 440 -177 504 -271 689 -88 174 -178 314 -293 458
-104 130 -435 462 -594 595 -253 212 -283 238 -333 296 -29 33 -53 57 -53 53z"/>
<path d="M1102 4045 c0 -16 2 -22 5 -12 2 9 2 23 0 30 -3 6 -5 -1 -5 -18z"/>
<path d="M1112 3980 c0 -14 2 -19 5 -12 2 6 2 18 0 25 -3 6 -5 1 -5 -13z"/>
<path d="M1122 3930 c0 -14 2 -19 5 -12 2 6 2 18 0 25 -3 6 -5 1 -5 -13z"/>
<path d="M1131 3894 c-1 -5 13 -68 29 -140 53 -228 51 -389 -9 -567 -16 -46
-71 -173 -124 -283 -193 -406 -241 -591 -240 -939 0 -200 12 -321 50 -500 30
-147 115 -408 179 -550 51 -114 70 -139 28 -34 -80 195 -179 530 -210 709 -21
128 -30 476 -15 607 25 217 84 394 241 723 126 267 153 361 152 537 -1 67 -10
144 -27 225 -26 126 -53 231 -54 212z"/>
<path d="M3930 3634 c0 -21 73 -131 118 -177 26 -27 115 -105 197 -175 547
-460 801 -745 1041 -1167 173 -306 264 -539 355 -915 103 -425 142 -580 146
-576 5 5 -128 603 -167 751 -133 503 -436 1028 -830 1439 -88 92 -269 253
-525 468 -182 152 -252 224 -299 302 -20 33 -36 55 -36 50z"/>
<path d="M2775 3473 c5 -68 37 -129 156 -300 168 -240 212 -359 212 -573 0
-105 -5 -154 -37 -310 -36 -178 -38 -191 -33 -335 14 -399 199 -864 493 -1242
36 -45 69 -85 75 -89 6 -4 -11 22 -39 57 -66 85 -179 264 -246 391 -102 192
-187 432 -238 671 -34 162 -30 340 11 532 55 253 53 434 -6 600 -35 99 -78
173 -184 316 -101 138 -147 220 -160 288 l-8 46 4 -52z"/>
<path d="M3285 2990 c10 -19 47 -80 83 -135 78 -119 123 -214 154 -321 32
-111 31 -316 -1 -499 -29 -158 -38 -390 -22 -504 39 -267 154 -608 340 -1011
72 -155 213 -413 253 -460 l20 -25 -17 29 c-66 111 -97 168 -158 295 -195 410
-318 744 -383 1046 -26 117 -28 149 -29 325 0 161 4 220 24 334 20 117 23 161
18 275 -8 203 -42 295 -200 541 -85 133 -111 167 -82 110z"/>
<path d="M2355 2679 c-4 -6 -5 -12 -2 -15 2 -3 7 2 10 11 7 17 1 20 -8 4z"/>
<path d="M2336 2635 c-3 -9 -6 -22 -5 -28 0 -7 5 -1 10 12 5 13 8 26 5 28 -2
2 -6 -3 -10 -12z"/>
<path d="M2313 2543 c-4 -27 -8 -102 -7 -168 1 -128 19 -236 61 -365 37 -116
162 -362 252 -497 76 -115 235 -323 247 -323 2 0 -20 30 -49 67 -67 83 -190
264 -245 359 -188 325 -258 562 -250 839 2 74 3 135 1 135 -1 0 -5 -21 -10
-47z"/>
<path d="M4281 2354 c0 -11 3 -14 6 -6 3 7 2 16 -1 19 -3 4 -6 -2 -5 -13z"/>
<path d="M4291 2314 c0 -11 3 -14 6 -6 3 7 2 16 -1 19 -3 4 -6 -2 -5 -13z"/>
<path d="M2746 2297 c3 -10 9 -15 12 -12 3 3 0 11 -7 18 -10 9 -11 8 -5 -6z"/>
<path d="M4300 2283 c-1 -30 53 -150 200 -448 87 -176 183 -385 213 -465 100
-260 191 -592 293 -1072 21 -98 40 -176 42 -174 10 10 -80 474 -128 662 -100
387 -197 641 -402 1049 -83 165 -166 336 -184 380 -18 44 -33 75 -34 68z"/>
<path d="M293 2175 c0 -22 2 -30 4 -17 2 12 2 30 0 40 -3 9 -5 -1 -4 -23z"/>
<path d="M4500 2178 c0 -3 62 -59 138 -123 362 -309 558 -541 741 -877 24 -43
45 -78 48 -78 16 0 -158 290 -249 412 -142 193 -256 311 -493 513 -82 71 -158
135 -167 143 -10 8 -18 13 -18 10z"/>
<path d="M3850 1796 c0 -4 58 -181 129 -394 173 -517 231 -724 284 -1022 2
-14 2 2 0 35 -13 172 -64 380 -182 745 -136 423 -231 684 -231 636z"/>
<path d="M1930 1440 c6 -11 13 -20 16 -20 2 0 0 9 -6 20 -6 11 -13 20 -16 20
-2 0 0 -9 6 -20z"/>
<path d="M4301 1415 c0 -5 6 -21 14 -35 8 -14 14 -20 14 -15 0 6 -6 21 -14 35
-8 14 -14 21 -14 15z"/>
<path d="M4330 1345 c0 -5 5 -17 10 -25 5 -8 10 -10 10 -5 0 6 -5 17 -10 25
-5 8 -10 11 -10 5z"/>
<path d="M4381 1235 c0 -5 6 -21 14 -35 8 -14 14 -20 14 -15 0 6 -6 21 -14 35
-8 14 -14 21 -14 15z"/>
<path d="M2910 1135 c19 -19 36 -35 39 -35 3 0 -10 16 -29 35 -19 19 -36 35
-39 35 -3 0 10 -16 29 -35z"/>
<path d="M5467 1015 c20 -41 39 -73 41 -71 4 5 -66 146 -73 146 -3 0 12 -34
32 -75z"/>
<path d="M3010 1028 c24 -27 45 -48 47 -48 8 0 0 9 -44 50 l-48 45 45 -47z"/>
<path d="M4485 1020 c9 -16 18 -30 21 -30 2 0 -2 14 -11 30 -9 17 -18 30 -21
30 -2 0 2 -13 11 -30z"/>
<path d="M5550 845 c0 -5 5 -17 10 -25 5 -8 10 -10 10 -5 0 6 -5 17 -10 25 -5
8 -10 11 -10 5z"/>
<path d="M1070 791 c0 -6 4 -13 10 -16 6 -3 7 1 4 9 -7 18 -14 21 -14 7z"/>
<path d="M3170 676 c0 -3 9 -10 20 -16 11 -6 20 -8 20 -6 0 3 -9 10 -20 16
-11 6 -20 8 -20 6z"/>
<path d="M3220 646 c0 -2 7 -7 16 -10 8 -3 12 -2 9 4 -6 10 -25 14 -25 6z"/>
<path d="M3300 605 c14 -8 30 -14 35 -14 6 0 -1 6 -15 14 -14 8 -29 14 -35 14
-5 0 1 -6 15 -14z"/>
<path d="M5791 594 c0 -11 3 -14 6 -6 3 7 2 16 -1 19 -3 4 -6 -2 -5 -13z"/>
<path d="M5801 554 c0 -11 3 -14 6 -6 3 7 2 16 -1 19 -3 4 -6 -2 -5 -13z"/>
<path d="M5811 514 c0 -11 3 -14 6 -6 3 7 2 16 -1 19 -3 4 -6 -2 -5 -13z"/>
<path d="M5821 474 c0 -11 3 -14 6 -6 3 7 2 16 -1 19 -3 4 -6 -2 -5 -13z"/>
<path d="M5831 434 c0 -11 3 -14 6 -6 3 7 2 16 -1 19 -3 4 -6 -2 -5 -13z"/>
<path d="M4273 300 c0 -25 2 -35 4 -22 2 12 2 32 0 45 -2 12 -4 2 -4 -23z"/>
<path d="M5871 264 c0 -11 3 -14 6 -6 3 7 2 16 -1 19 -3 4 -6 -2 -5 -13z"/>
<path d="M4283 185 c0 -27 2 -38 4 -22 2 15 2 37 0 50 -2 12 -4 0 -4 -28z"/>
<path d="M5052 90 c0 -14 2 -19 5 -12 2 6 2 18 0 25 -3 6 -5 1 -5 -13z"/>
</g>
</svg>
